<?xml version="1.0" standalone="no"?>
<!DOCTYPE svg PUBLIC "-//W3C//DTD SVG 20010904//EN"
 "http://www.w3.org/TR/2001/REC-SVG-20010904/DTD/svg10.dtd">
<svg version="1.0" xmlns="http://www.w3.org/2000/svg"
 width="1786.000000pt" height="1786.000000pt" viewBox="0 0 1786.000000 1786.000000"
 preserveAspectRatio="xMidYMid meet">
<metadata>
Created by potrace 1.11, written by Peter Selinger 2001-2013
</metadata>
<g transform="translate(0.000000,1786.000000) scale(0.100000,-0.100000)"
fill="#000000" stroke="none">
<path d="M8520 14469 c-1175 -54 -2310 -503 -3205 -1269 -161 -138 -476 -456
-605 -610 -530 -636 -908 -1377 -1095 -2150 -15 -63 -29 -117 -31 -119 -2 -2
-36 24 -76 56 -133 109 -259 180 -365 208 -84 22 -110 19 -144 -14 -22 -23
-29 -39 -29 -69 0 -38 6 -46 125 -160 69 -66 125 -122 125 -125 0 -3 -30 -8
-67 -12 -232 -25 -444 -135 -643 -335 -113 -112 -226 -270 -296 -413 -21 -42
-43 -76 -48 -74 -5 2 -60 102 -123 222 -194 373 -312 546 -497 731 -157 156
-304 251 -451 289 -74 19 -115 19 -141 0 -27 -19 -48 -68 -40 -98 3 -12 57
-71 121 -131 89 -84 132 -133 189 -219 185 -280 309 -582 419 -1023 51 -205
62 -264 50 -264 -5 0 -38 39 -73 87 -194 262 -385 424 -648 551 -56 27 -112
47 -142 50 -42 4 -52 1 -74 -21 -19 -19 -26 -37 -26 -65 0 -43 1 -45 124 -191
96 -114 190 -259 263 -401 l54 -105 -383 -5 c-375 -5 -384 -6 -443 -29 -161
-64 -268 -178 -318 -336 -21 -65 -22 -89 -22 -350 0 -261 2 -285 22 -350 36
-113 135 -240 227 -292 10 -6 65 -224 181 -723 91 -393 172 -737 180 -763 l16
-48 -31 -39 c-17 -21 -43 -65 -58 -97 l-27 -58 0 -275 0 -275 26 -56 c15 -31
43 -74 63 -96 l36 -40 0 -245 c0 -232 -1 -246 -20 -263 -31 -28 -76 -105 -94
-162 -15 -44 -17 -90 -14 -310 l3 -258 32 -66 c60 -122 176 -207 313 -228 84
-14 3544 -14 3626 -1 31 5 85 23 119 39 l63 29 58 -29 c86 -42 156 -49 479
-49 312 0 378 6 457 42 l51 24 47 -23 c80 -38 166 -45 518 -41 362 5 380 8
477 71 l52 35 49 -33 c104 -70 107 -70 619 -70 l460 0 65 29 c36 15 72 28 80
28 8 0 44 -13 80 -28 l65 -29 350 0 c341 0 352 1 406 23 164 66 259 191 275
360 l7 68 146 18 146 18 29 -39 c65 -84 235 -239 319 -291 352 -219 826 -258
1234 -101 l82 31 31 -22 c17 -12 56 -31 88 -43 l57 -22 1530 0 c1515 0 1531 0
1586 20 54 20 57 20 105 4 166 -57 409 -68 574 -26 76 20 100 22 125 13 43
-15 1584 -21 1680 -6 142 22 257 105 318 229 l32 66 0 390 c0 444 1 436 -85
549 l-46 62 34 40 c19 21 49 68 66 104 l31 65 3 362 3 363 32 16 c116 59 254
195 329 322 86 146 122 275 139 486 19 241 -1 401 -64 506 -62 105 -167 192
-269 226 -29 9 -54 18 -56 19 -1 1 14 51 34 111 33 100 37 121 41 255 13 360
-86 640 -299 845 -159 153 -357 251 -610 304 -108 22 -288 40 -405 40 l-81 0
53 103 c109 210 151 404 142 662 -9 275 -71 472 -217 694 -185 281 -493 491
-835 567 -112 25 -363 30 -486 10 -291 -48 -530 -176 -744 -398 l-104 -107
-10 37 c-6 20 -21 82 -35 137 -14 55 -37 138 -51 184 l-25 84 62 66 c80 85
1684 1707 2466 2494 l604 607 266 0 c313 1 456 12 491 38 51 38 66 69 66 137
0 68 -15 99 -67 138 -39 29 -139 36 -528 36 l-345 1 -1570 -1570 c-863 -863
-1572 -1570 -1576 -1570 -3 0 -20 37 -38 83 -19 45 -73 163 -121 262 -603
1248 -1683 2216 -2989 2682 -510 181 -1005 277 -1566 303 -228 10 -224 10
-465 -1z m795 -778 c354 -46 627 -110 950 -222 842 -291 1597 -840 2137 -1556
61 -81 173 -242 201 -289 4 -7 -45 5 -107 26 -207 69 -354 90 -644 90 -366 0
-562 -40 -827 -170 -201 -99 -305 -194 -379 -350 -28 -58 -31 -75 -31 -157 0
-101 13 -131 72 -165 37 -22 177 -38 336 -38 l117 0 -2 -182 -3 -183 -210 -4
-210 -3 -80 -87 c-44 -49 -148 -174 -230 -280 l-150 -192 -80 8 c-239 24 -418
-15 -592 -129 -243 -159 -399 -416 -419 -695 -6 -71 6 -206 21 -245 5 -14 -6
-17 -72 -22 -279 -23 -502 -97 -713 -239 -97 -65 -241 -211 -307 -310 -28 -43
-53 -75 -56 -70 -2 4 -23 67 -45 138 -62 195 -142 303 -277 369 -105 51 -145
56 -467 56 -164 0 -298 2 -298 4 0 3 18 46 40 97 55 128 157 300 252 425 126
169 142 213 93 258 -46 43 -69 42 -172 -8 -254 -123 -452 -298 -642 -566 -51
-71 -97 -130 -101 -130 -11 0 -6 34 41 270 70 355 149 608 264 845 84 174 164
292 290 425 93 98 105 115 105 146 0 26 -8 44 -31 66 -28 28 -34 30 -82 25
-128 -13 -296 -115 -463 -282 -208 -208 -388 -503 -555 -909 -28 -66 -54 -125
-59 -130 -5 -5 -23 21 -43 61 -113 223 -319 451 -519 572 -177 107 -453 181
-529 141 -23 -13 -49 -61 -49 -93 0 -13 9 -36 20 -50 11 -14 20 -31 20 -39 0
-7 -40 -37 -90 -66 -182 -106 -324 -245 -451 -440 -43 -68 -68 -98 -72 -88 -7
18 9 243 29 406 97 781 399 1531 871 2162 151 201 257 323 437 503 589 587
1317 997 2122 1195 184 46 457 94 624 109 63 6 131 13 150 15 19 2 186 3 370
1 271 -2 365 -7 495 -24z m3689 -2846 c9 -20 36 -95 61 -167 l46 -131 -28 -29
-27 -28 -241 2 -240 3 -3 183 -2 182 127 1 c71 1 157 5 193 9 36 4 73 8 82 8
12 1 23 -11 32 -33z m-9594 -938 c80 -154 82 -160 76 -210 l-7 -52 -107 -72
c-268 -179 -472 -410 -624 -703 -43 -83 -59 -104 -74 -102 -80 10 -164 28
-164 34 0 31 49 217 87 333 116 347 306 635 552 834 54 44 105 94 116 115 l20
37 22 -27 c12 -16 59 -99 103 -187z m1677 -210 c28 -29 84 -99 126 -155 l75
-103 -105 -102 c-157 -152 -295 -333 -374 -489 l-29 -58 -105 0 -104 0 6 33
c29 153 139 457 219 605 72 131 210 322 234 322 4 0 30 -24 57 -53z m-1624
-686 l3 -155 -49 55 c-27 30 -53 61 -58 70 -6 12 6 46 43 120 33 65 53 97 54
84 2 -11 5 -89 7 -174z m2018 27 c15 -28 79 -218 79 -235 0 -10 -26 -13 -110
-13 -60 0 -110 4 -110 9 0 11 43 125 67 176 43 92 54 101 74 63z m3885 -722
c101 -21 191 -56 255 -99 55 -37 139 -119 170 -167 15 -23 16 -19 29 103 l13
127 273 0 274 0 -2 -392 -3 -393 -281 -3 -282 -2 -12 67 c-29 167 -139 266
-325 292 -35 5 -74 7 -87 4 -82 -18 -103 -28 -138 -59 -42 -38 -56 -76 -46
-129 15 -80 102 -128 466 -255 355 -124 481 -189 603 -313 107 -109 157 -231
157 -382 -1 -172 -54 -307 -169 -424 -111 -113 -256 -184 -444 -217 -118 -21
-310 -22 -403 -1 -149 32 -304 112 -401 205 -31 29 -57 51 -58 50 -1 -2 -8
-46 -14 -98 -7 -52 -15 -103 -17 -112 -5 -17 -27 -18 -280 -18 l-274 0 0 395
0 395 295 0 295 0 0 -31 c0 -97 78 -198 182 -237 218 -81 438 -37 464 94 8 42
-29 83 -104 117 -32 15 -165 58 -296 98 -131 39 -268 83 -305 99 -155 66 -277
152 -360 255 -95 118 -125 210 -124 385 0 146 29 243 102 346 177 253 510 371
847 300z m-7826 -241 l0 -205 -86 0 -86 0 7 -47 c4 -27 31 -181 60 -343 29
-162 65 -379 81 -482 15 -104 31 -188 36 -188 4 0 8 12 8 26 0 40 108 570 210
1027 49 224 90 410 90 412 0 3 147 5 328 5 l327 0 103 -452 c120 -527 132
-591 163 -835 13 -100 26 -180 30 -177 3 2 9 34 12 71 12 126 76 476 131 725
31 135 56 249 56 252 0 3 -38 6 -85 6 l-85 0 0 205 0 205 450 0 450 0 0 -205
0 -205 -87 0 -88 0 -231 -883 -230 -882 -372 -3 -371 -2 -10 37 c-63 236 -223
903 -237 987 -12 72 -20 103 -25 90 -4 -10 -19 -84 -34 -165 -14 -80 -72 -325
-128 -545 l-102 -399 -364 0 -365 0 -188 810 c-103 446 -195 843 -204 883
l-16 72 -89 0 -89 0 0 205 0 205 515 0 515 0 0 -205z m4120 -140 l0 -345 -270
0 -270 0 0 140 0 140 -245 0 -245 0 0 -215 0 -215 295 0 295 0 0 -210 0 -210
-295 0 -295 0 0 -250 0 -250 245 0 245 0 0 145 0 145 270 0 270 0 0 -355 0
-355 -940 0 -940 0 0 210 0 210 100 0 100 0 0 675 0 675 -100 0 -100 0 0 205
0 205 940 0 940 0 0 -345z m2101 -537 l275 -883 107 -3 107 -3 0 -204 0 -205
-625 0 -625 0 0 205 0 205 145 0 c109 0 145 3 145 13 0 6 -13 53 -28 102 l-28
90 -318 0 -318 0 -29 -90 c-16 -49 -29 -96 -29 -102 0 -10 31 -13 120 -13
l120 0 0 -205 0 -205 -500 0 -500 0 0 205 0 204 107 3 108 3 207 670 c113 369
207 673 207 678 1 4 -26 7 -59 7 l-60 0 0 205 0 205 598 0 598 0 275 -882z
m4105 316 l379 -565 3 98 c2 54 0 216 -3 360 l-7 262 -102 3 -101 3 -3 203 -2
202 470 0 470 0 0 -205 0 -205 -100 0 -100 0 0 -885 0 -885 -337 0 -338 1
-262 392 c-144 216 -320 480 -392 587 l-131 194 0 -382 0 -381 118 -3 117 -3
3 -202 2 -203 -480 0 -480 0 0 205 0 205 90 0 90 0 0 680 0 680 -90 0 -90 0 0
205 0 205 449 0 448 0 379 -566z m3144 221 l0 -345 -275 0 -275 0 0 135 0 135
-245 0 -245 0 0 -210 0 -210 295 0 295 0 0 -210 0 -210 -295 0 -295 0 0 -250
0 -250 245 0 244 0 3 143 3 142 273 3 272 2 0 -355 0 -355 -940 0 -940 0 0
210 0 210 95 0 95 0 0 675 0 675 -95 0 -95 0 0 205 0 205 940 0 940 0 0 -345z
m1432 330 c125 -16 269 -62 348 -110 67 -41 149 -125 180 -184 28 -56 56 -168
64 -262 14 -149 -28 -275 -123 -369 -61 -61 -166 -120 -248 -141 l-52 -13 51
-18 c126 -44 237 -142 291 -255 22 -49 31 -85 38 -165 15 -186 24 -208 79
-208 45 0 60 31 60 122 l0 78 111 0 112 0 -6 -152 c-3 -91 -12 -177 -22 -212
-62 -232 -252 -340 -538 -307 -274 31 -425 156 -483 396 -8 33 -17 123 -20
200 -3 77 -12 163 -20 191 -25 91 -101 134 -234 134 l-50 0 0 -235 0 -235 95
0 95 0 0 -210 0 -210 -505 0 -505 0 0 210 0 210 85 0 85 0 0 675 0 675 -85 0
-85 0 0 205 0 205 588 0 c450 0 612 -4 694 -15z m-5798 -2650 c81 -21 191 -81
225 -122 l28 -33 28 70 28 70 199 0 198 0 0 -360 0 -360 -225 0 -224 0 -6 38
c-18 110 -68 203 -128 241 -51 31 -127 45 -179 31 -98 -26 -169 -106 -215
-245 -25 -73 -27 -93 -27 -235 0 -135 3 -163 22 -214 45 -120 130 -216 219
-247 56 -20 179 -18 231 4 74 30 154 87 221 156 l64 66 66 -71 c36 -39 103
-111 148 -161 l83 -90 -73 -70 c-219 -211 -508 -313 -803 -283 -222 23 -376
88 -516 219 -123 115 -205 267 -244 451 -27 126 -25 355 4 474 42 168 141 345
259 463 178 179 419 259 617 208z m-8924 -185 l0 -170 -70 0 -70 0 0 -540 0
-540 160 0 159 0 3 158 3 157 210 0 210 0 3 -332 2 -333 -705 0 -705 0 0 175
0 175 65 0 65 0 0 540 0 540 -65 0 -65 0 0 170 0 170 400 0 400 0 0 -170z
m2285 -467 c109 -351 209 -673 222 -715 l24 -78 90 0 89 0 -2 -167 -3 -168
-505 0 -505 0 -3 168 -2 167 121 0 c99 0 120 3 116 14 -3 7 -15 46 -27 85
l-21 71 -254 0 -254 0 -26 -81 c-14 -44 -25 -82 -25 -85 0 -2 43 -4 95 -4 l95
0 0 -170 0 -170 -400 0 -400 0 0 170 0 170 84 0 c72 0 85 3 90 18 3 9 77 252
165 539 89 287 161 527 161 533 0 5 -22 10 -50 10 l-50 0 0 165 0 165 488 0
488 0 199 -637z m1265 472 l0 -165 -70 0 c-51 0 -70 -4 -70 -13 0 -7 16 -100
35 -207 19 -107 49 -280 65 -385 17 -104 33 -206 36 -225 5 -27 19 28 65 255
32 160 89 427 127 595 l67 305 266 3 265 2 82 -362 c99 -439 106 -472 133
-668 11 -85 22 -156 24 -158 1 -1 5 26 9 60 13 118 67 413 110 603 l43 190
-69 3 -68 3 0 164 0 165 365 0 365 0 0 -165 0 -164 -72 -3 -72 -3 -188 -715
c-103 -393 -187 -716 -188 -717 0 -2 -135 -3 -300 -3 l-299 0 -10 38 c-46 171
-172 697 -187 774 -10 54 -19 96 -21 95 -1 -2 -12 -52 -23 -113 -21 -109 -173
-724 -190 -770 l-10 -24 -289 0 -290 0 -9 33 c-5 17 -80 341 -168 720 l-159
687 -72 0 -73 0 0 165 0 165 420 0 420 0 0 -165z m2836 -277 c163 -244 301
-447 305 -452 5 -6 9 117 9 277 l0 287 -85 0 -85 0 0 165 0 165 380 0 380 0 0
-165 0 -165 -80 0 -80 0 -2 -717 -3 -718 -270 -3 -270 -2 -315 470 c-173 258
-315 470 -317 470 -2 0 -3 -135 -3 -300 l0 -299 93 -3 92 -3 0 -165 0 -165
-388 -3 -387 -2 2 167 3 168 73 3 72 3 0 549 0 550 -75 0 -75 0 0 165 0 165
365 0 364 0 297 -442z m4772 350 c16 -51 116 -373 222 -715 l194 -623 88 0 88
0 0 -170 0 -170 -505 0 -505 0 0 170 0 170 115 0 c63 0 115 3 115 8 0 4 -11
41 -23 82 l-24 75 -255 3 -256 2 -21 -70 c-12 -38 -24 -76 -27 -85 -5 -13 8
-15 95 -15 l101 0 -2 -167 -3 -168 -402 -3 -403 -2 0 169 0 170 86 3 86 3 168
545 168 545 -49 3 -49 3 0 165 0 164 485 0 484 0 29 -92z m1702 82 c344 -39
500 -191 504 -490 1 -115 -20 -174 -91 -250 -56 -61 -144 -114 -210 -126 l-36
-7 69 -32 c90 -42 153 -99 193 -175 29 -53 34 -77 42 -167 9 -116 24 -153 64
-153 33 0 45 27 45 99 l0 61 90 0 90 0 0 -97 c-1 -233 -70 -367 -219 -424 -45
-17 -77 -22 -161 -21 -173 0 -293 43 -372 132 -77 86 -101 168 -116 392 -6
104 -12 133 -28 155 -27 38 -77 60 -151 67 l-63 7 0 -196 0 -195 75 0 75 0 0
-170 0 -170 -407 2 -408 3 -3 168 -2 167 75 0 75 0 0 545 0 544 -72 3 -73 3
-3 155 c-1 85 0 160 2 167 4 10 99 13 468 13 255 0 501 -5 548 -10z m2360
-270 l0 -280 -220 0 -220 0 0 110 0 110 -195 0 -195 0 0 -170 0 -170 235 0
235 0 0 -170 0 -170 -235 0 -235 0 0 -200 0 -200 195 0 195 0 0 115 0 115 220
0 220 0 0 -290 0 -290 -760 0 -760 0 2 173 3 172 78 3 77 3 0 539 0 540 -80 0
-80 0 0 170 0 170 760 0 760 0 0 -280z"/>
<path d="M6910 7748 c0 -2 -43 -146 -95 -319 -52 -173 -95 -317 -95 -321 0 -5
88 -8 195 -8 107 0 195 4 195 9 0 11 -191 635 -196 640 -2 2 -4 2 -4 -1z"/>
<path d="M15980 7610 l0 -260 103 0 c170 0 252 35 300 129 51 102 31 248 -45
322 -54 52 -114 69 -250 69 l-108 0 0 -260z"/>
<path d="M3331 5135 c-6 -22 -42 -141 -79 -265 l-69 -225 155 -3 c85 -1 157 0
160 3 3 3 -31 123 -75 267 -80 261 -81 263 -92 223z"/>
<path d="M12306 4910 c-43 -144 -76 -263 -74 -266 3 -2 75 -3 160 -2 l156 3
-77 250 c-43 138 -79 256 -82 263 -2 7 -40 -104 -83 -248z"/>
<path d="M14230 5061 l0 -211 98 0 c118 0 185 25 221 83 42 69 37 192 -11 260
-33 46 -98 70 -210 75 l-98 5 0 -212z"/>
</g>
</svg>
