<?xml version="1.0" encoding="UTF-8" standalone="no"?>
<svg
   xmlns:dc="http://purl.org/dc/elements/1.1/"
   xmlns:cc="http://creativecommons.org/ns#"
   xmlns:rdf="http://www.w3.org/1999/02/22-rdf-syntax-ns#"
   xmlns:svg="http://www.w3.org/2000/svg"
   xmlns="http://www.w3.org/2000/svg"
   xmlns:sodipodi="http://sodipodi.sourceforge.net/DTD/sodipodi-0.dtd"
   xmlns:inkscape="http://www.inkscape.org/namespaces/inkscape"
   width="1600"
   height="844"
   viewBox="0 0 1200 633"
   preserveAspectRatio="xMidYMid meet"
   version="1.1"
   id="svg13"
   sodipodi:docname="zelle_logo_2.svg"
   inkscape:version="0.92.3 (2405546, 2018-03-11)">
  <metadata
     id="metadata19">
    <rdf:RDF>
      <cc:Work
         rdf:about="">
        <dc:format>image/svg+xml</dc:format>
        <dc:type
           rdf:resource="http://purl.org/dc/dcmitype/StillImage" />
        <dc:title></dc:title>
      </cc:Work>
    </rdf:RDF>
  </metadata>
  <defs
     id="defs17" />
  <sodipodi:namedview
     pagecolor="#ffffff"
     bordercolor="#666666"
     borderopacity="1"
     objecttolerance="10"
     gridtolerance="10"
     guidetolerance="10"
     inkscape:pageopacity="0"
     inkscape:pageshadow="2"
     inkscape:window-width="1456"
     inkscape:window-height="977"
     id="namedview15"
     showgrid="false"
     fit-margin-top="0"
     fit-margin-left="0"
     fit-margin-right="0"
     fit-margin-bottom="0"
     units="px"
     inkscape:zoom="0.215"
     inkscape:cx="800"
     inkscape:cy="422"
     inkscape:window-x="0"
     inkscape:window-y="0"
     inkscape:window-maximized="0"
     inkscape:current-layer="svg13" />
  <rect
     height="165.69766%"
     width="165.69766%"
     id="rect2"
     x="-394.18604"
     y="-207.93314"
     style="fill:#6c1cd3;stroke-width:1" />
  <g
     transform="matrix(0.16569767,0,0,-0.16569767,-394.18605,840.93314)"
     id="g11"
     style="fill:#ffffff;stroke:none;stroke-width:0.60350877">
    <path
       d="m 3030,4179.9975 -657.2625,6.0526 -7e-4,-436.0501 H 3462 L 2330.0025,2299 V 1929.9975 H 3030 V 1505 h 420 v 425 h 714 c 6,17 8.1053,62.8446 -29.8947,104.8446 -63,70 -113.1053,143.1579 -159.1053,235.1579 -21,41 -36.9474,90.1053 -42.9474,94.1053 C 3791.448,2370.55 2982.5639,2368.8831 2983,2374 l 1133,1459.8947 v 346.1028 H 3450 V 4610 h -420 z"
       id="path6"
       inkscape:connector-curvature="0"
       style="stroke-width:0.60350877" />
    <path
       d="m 6063,4383 c -10,-4 -13,-225 -13,-1062 0,-1131 -1,-1112 49,-1209 45,-87 155,-165 278,-197 68,-18 268,-20 345,-4 99,21 118,51 79,128 -25,48 -58,153 -66,211 -11,69 -25,80 -109,78 -40,-1 -78,2 -85,6 -41,26 -41,33 -41,1046 0,651 -3,978 -10,991 -10,18 -23,19 -213,18 -111,0 -208,-3 -214,-6 z"
       id="path8"
       inkscape:connector-curvature="0"
       style="stroke-width:0.60350877" />
    <path
       d="m 6980,4380 c -13,-8 -15,-136 -15,-1052 0,-987 1,-1047 19,-1116 34,-136 111,-219 257,-280 56,-23 81,-27 194,-30 151,-4 228,7 305,46 76,37 78,63 13,158 -26,38 -66,103 -88,144 l -40,75 -73,1 c -91,2 -100,6 -117,49 -13,29 -15,178 -15,1005 0,651 -3,978 -10,991 -10,18 -23,19 -213,19 -111,0 -209,-5 -217,-10 z"
       id="path10"
       inkscape:connector-curvature="0"
       style="stroke-width:0.60350877" />
    <path
       d="m 9640,4165 c -81,-37 -123,-101 -124,-190 -1,-76 30,-134 93,-175 78,-53 203,-38 268,32 83,89 66,243 -36,312 -53,36 -146,45 -201,21 z m 160,-37 c 113,-57 130,-203 34,-288 -41,-36 -70,-44 -133,-38 -174,17 -208,261 -46,334 44,20 95,17 145,-8 z"
       id="path12"
       inkscape:connector-curvature="0"
       style="stroke-width:0.60350877" />
    <path
       d="m 9647,4083 c -7,-12 -8,-198 -1,-217 3,-9 12,-16 20,-16 10,0 14,14 14,50 0,45 2,50 23,50 16,0 30,-14 52,-50 18,-30 36,-50 47,-50 24,0 23,4 -14,58 -22,32 -28,47 -19,50 26,9 51,42 51,67 0,45 -32,65 -104,65 -36,0 -67,-3 -69,-7 z m 121,-32 c 8,-4 12,-19 10,-32 -3,-21 -9,-24 -50,-27 l -48,-3 v 35 c 0,35 1,36 38,36 20,0 43,-4 50,-9 z"
       id="path14"
       inkscape:connector-curvature="0"
       style="stroke-width:0.60350877" />
    <path
       d="m 4805,3755 c -5,-2 -44,-11 -85,-20 -257,-59 -484,-256 -580,-506 -53,-138 -72,-245 -73,-404 -1,-223 44,-387 147,-543 116,-175 286,-294 506,-354 75,-20 108,-23 280,-23 170,0 205,3 276,22 176,49 326,130 447,245 77,72 76,92 -2,152 -32,25 -90,79 -128,121 -48,51 -77,75 -92,75 -14,0 -46,-20 -77,-50 -107,-97 -242,-143 -419,-142 -162,1 -280,43 -355,129 -38,43 -86,141 -96,196 l -6,37 h 623 c 343,0 630,4 637,9 33,21 41,166 17,324 -57,378 -283,632 -638,717 -63,15 -115,20 -227,19 -80,0 -149,-2 -155,-4 z m 267,-386 c 73,-15 163,-65 205,-113 39,-44 79,-123 89,-174 l 7,-32 h -408 -407 l 7,32 c 30,135 146,248 290,284 64,16 150,17 217,3 z"
       id="path16"
       inkscape:connector-curvature="0"
       style="stroke-width:0.60350877" />
    <path
       d="m 8440,3746 c -355,-79 -595,-329 -670,-698 -45,-218 -20,-472 65,-654 116,-252 327,-415 615,-474 91,-19 127,-21 270,-17 121,4 186,11 242,26 171,45 321,127 436,237 88,85 88,89 -7,168 -44,36 -103,93 -131,126 -65,75 -82,76 -155,10 -109,-99 -239,-143 -420,-142 -254,1 -402,110 -450,330 l -7,25.95 h 1267 c 43,31 27,359.05 -25,511.05 -10,30 -37,90 -59,132 -117,224 -304,363 -564,418 -83,18 -328,18 -407,1 z m 312,-377 c 68,-15 138,-50 188,-95 42,-39 110,-162 110,-200 v -24 h -812 l 7,28 c 52,214 272,341 507,291 z"
       id="path18"
       inkscape:connector-curvature="0"
       style="stroke-width:0.60350877" />
  </g>
</svg>
